<svg width="67" height="95" viewBox="0 0 67 95" fill="none" xmlns="http://www.w3.org/2000/svg">
<path d="M33.3162 0.628906C15.0832 0.628906 0.25 15.4639 0.25 33.6992C0.25 51.3392 30.4803 91.5295 31.7681 93.2336C32.1299 93.7199 32.7096 94.0039 33.3164 94.0039C33.9233 94.0039 34.503 93.7199 34.8648 93.2336C36.1524 91.5295 66.3829 51.3394 66.3829 33.6992C66.3825 15.4639 51.5493 0.628906 33.3162 0.628906ZM33.3162 51.207C23.6648 51.207 15.8106 43.3518 15.8106 33.6992C15.8106 24.0465 23.6648 16.1913 33.3162 16.1913C42.9677 16.1913 50.8219 24.0465 50.8219 33.6992C50.8219 43.3518 42.9677 51.207 33.3162 51.207Z" fill="#EB5757"/>
</svg>
